<?xml version="1.0" encoding="UTF-8"?>
<svg width="16px" height="16px" viewBox="0 0 16 16" version="1.1" xmlns="http://www.w3.org/2000/svg" xmlns:xlink="http://www.w3.org/1999/xlink">
    <!-- Generator: Sketch 64 (93537) - https://sketch.com -->
    <title>icon_16px_close_black</title>
    <desc>Created with Sketch.</desc>
    <g id="icon_16px_close_black" stroke="none" stroke-width="1" fill="none" fill-rule="evenodd">
        <g fill="#171338" id="形状结合">
            <path d="M8,0 C12.418278,0 16,3.581722 16,8 C16,12.418278 12.418278,16 8,16 C3.581722,16 0,12.418278 0,8 C0,3.581722 3.581722,0 8,0 Z M11.6015765,4.53050865 C11.3282095,4.25714165 10.884994,4.25714165 10.611627,4.53050865 L10.611627,4.53050865 L8.06604256,7.07609307 L5.52045815,4.53050865 C5.24709114,4.25714165 4.80387566,4.25714165 4.53050865,4.53050865 C4.25714165,4.80387566 4.25714165,5.24709114 4.53050865,5.52045815 L4.53050865,5.52045815 L7.07609307,8.06604256 L4.53050865,10.611627 C4.25714165,10.884994 4.25714165,11.3282095 4.53050865,11.6015765 C4.80387566,11.8749435 5.24709114,11.8749435 5.52045815,11.6015765 L5.52045815,11.6015765 L8.06533545,9.05669916 L10.611627,11.6015765 C10.884994,11.8749435 11.3282095,11.8749435 11.6015765,11.6015765 C11.8749435,11.3282095 11.8749435,10.884994 11.6015765,10.611627 L11.6015765,10.611627 L9.05528495,8.06674967 L11.6015765,5.52045815 C11.8749435,5.24709114 11.8749435,4.80387566 11.6015765,4.53050865 Z"></path>
        </g>
    </g>
</svg>