<svg viewBox="0 0 16 16" xmlns="http://www.w3.org/2000/svg"><g fill="none" fill-rule="evenodd"><path d="M0 0h16v16H0z"/><path d="M4 8c0-.473-.358-.857-.8-.857H.8c-.442 0-.8.384-.8.857s.358.857.8.857h2.4c.442 0 .8-.384.8-.857zm11.2-.857h-2.4c-.442 0-.8.384-.8.857s.358.857.8.857h2.4c.442 0 .8-.384.8-.857s-.358-.857-.8-.857zM8 12c-.473 0-.857.358-.857.8v2.4c0 .442.384.8.857.8s.857-.358.857-.8v-2.4c0-.442-.384-.8-.857-.8zM8 0c-.473 0-.857.358-.857.8v2.4c0 .442.384.8.857.8s.857-.358.857-.8V.8C8.857.358 8.473 0 8 0zM4.952 1.547a.82.82 0 0 0-1.115-.296.803.803 0 0 0-.299 1.104l1.224 2.098a.821.821 0 0 0 1.115.296.803.803 0 0 0 .3-1.103L4.951 1.547zm6.286 10.285a.821.821 0 0 0-1.115-.295.803.803 0 0 0-.3 1.103l1.225 2.099a.82.82 0 0 0 1.115.295.803.803 0 0 0 .299-1.103l-1.224-2.099zm-6.49-1.71a.803.803 0 0 0-1.102-.298l-2.099 1.224a.82.82 0 0 0-.296 1.115.803.803 0 0 0 1.104.299l2.098-1.224a.821.821 0 0 0 .296-1.115zm6.789-4.245a.803.803 0 0 0 1.103.3l2.099-1.225a.82.82 0 0 0 .295-1.115.803.803 0 0 0-1.103-.299l-2.099 1.224a.821.821 0 0 0-.295 1.115zm-9.99-.925l2.099 1.224a.803.803 0 0 0 1.103-.299.821.821 0 0 0-.296-1.115L2.355 3.538a.803.803 0 0 0-1.104.299.82.82 0 0 0 .296 1.115zm13.192 6.096L12.64 9.824a.803.803 0 0 0-1.103.299.821.821 0 0 0 .295 1.115l2.099 1.224a.803.803 0 0 0 1.103-.299.82.82 0 0 0-.295-1.115zm-8.862.489a.821.821 0 0 0-1.115.295l-1.224 2.099a.803.803 0 0 0 .299 1.103.82.82 0 0 0 1.115-.295l1.224-2.099a.803.803 0 0 0-.299-1.103zm4.246-6.788c.39.223.89.09 1.115-.296l1.224-2.098a.803.803 0 0 0-.299-1.104.82.82 0 0 0-1.115.296L9.824 3.646a.803.803 0 0 0 .299 1.103z" fill="#fff"/></g></svg>
