<?xml version="1.0" encoding="UTF-8"?>
<svg width="16px" height="16px" viewBox="0 0 16 16" version="1.1" xmlns="http://www.w3.org/2000/svg" xmlns:xlink="http://www.w3.org/1999/xlink">
    <!-- Generator: Sketch 64 (93537) - https://sketch.com -->
    <title>icon_16px_ refresh_normal</title>
    <desc>Created with Sketch.</desc>
    <g id="icon_16px_-refresh_normal" stroke="none" stroke-width="1" fill="none" fill-rule="evenodd">
        <g id="编组">
            <rect id="矩形" x="0" y="0" width="16" height="16"></rect>
            <g id="refresh" transform="translate(1.000000, 1.000000)" fill="#171338" fill-rule="nonzero" stroke="#18123A" stroke-width="0.2">
                <path d="M6.98401802,0.111952568 C5.08494661,0.111952568 3.36554537,0.881772608 2.12092332,2.1263887 C0.876339564,3.37096651 0.10650518,5.09031216 0.10650518,6.98943203 C0.10650518,8.88856545 0.876337074,10.6079129 2.12091747,11.8524904 C3.36553998,13.0971099 5.08494365,13.8669282 6.98401802,13.8669282 C8.8830706,13.8669282 10.6024724,13.0971032 11.8470973,11.8524782 C13.0916763,10.6078993 13.8615142,8.88855426 12.7532332,6.98943203 C12.7532332,8.58254632 12.1074906,10.0248494 11.063467,11.068873 C10.0194462,12.1128938 8.57714659,12.7586372 6.98402803,12.7586372 C5.39090631,12.7586372 3.9485999,12.1128954 2.90457441,11.068873 C1.86055035,10.024852 1.21480615,8.58255156 1.21480615,6.98943203 C1.21480615,5.39632418 1.86055028,3.95402366 2.90457829,2.91000179 C3.94860084,1.86598539 5.39090302,1.22024353 6.98402803,1.22024353 C8.99853985,1.22024353 10.7684066,2.25410342 11.8001115,3.81874636 L10.4727778,4.92702563 L13.8615142,4.37287848 L12.7532232,1.75632994 L12.7532232,3.25576777 C11.5283023,1.36519052 9.40455881,0.111952568 6.98401802,0.111952568 Z" id="路径"></path>
            </g>
        </g>
    </g>
</svg>